<svg xmlns="http://www.w3.org/2000/svg" fill="none" viewBox="50.15 25 475 580">
<g filter="url(#filter0_d_36_20206)">
<rect x="50.1484" y="25" width="475" height="580" rx="25" fill="#ECEEFF"/>
</g>
<mask id="mask0_36_20206" style="mask-type:alpha" maskUnits="userSpaceOnUse" x="50" y="25" width="476" height="580">
<rect x="50.1484" y="25" width="475" height="580" rx="25" fill="#19BF6F"/>
</mask>
<g mask="url(#mask0_36_20206)">
<path fill-rule="evenodd" clip-rule="evenodd" d="M698.981 -77.1469C698.891 -77.6512 699.073 -78.1657 699.459 -78.5016C700.215 -79.1581 700.098 -80.3641 699.225 -80.8542C699.125 -80.9104 699.025 -80.9665 698.924 -81.0225C698.478 -81.2721 698.166 -81.708 698.076 -82.2114L696.486 -91.1086C695.847 -94.6833 692.431 -97.0632 688.857 -96.4244L684.739 -95.6885C676.301 -94.1806 667.669 -95.0838 659.329 -97.063C650.745 -99.1001 642.116 -100.151 633.342 -100.126C604.512 -100.042 576.604 -88.3415 546.088 -67.0404C514.591 -45.0548 486.403 -9.65289 462.296 24.0434C453.285 36.638 444.922 48.8624 437.105 60.288C423.276 80.5023 411.157 98.2162 400.191 111.056C385.07 128.761 368.871 133.189 356.41 129.996C343.781 126.76 329.69 114.346 322.042 87.1691L321.871 86.5617C313.4 56.4568 299.44 6.84816 273.913 -33.2833C252.385 -67.1275 221.115 -96.3117 176.764 -99.9266C175.391 -100.038 174.03 -99.5752 172.99 -98.6725L148.138 -77.0912C146.138 -75.3543 149.592 -69.6242 152.209 -70.0324C196.215 -76.8953 226.611 -53.524 249.403 -17.6926C272.447 18.5355 285.454 64.3901 294.079 95.0381C303.51 128.551 323.343 151.511 349.2 158.136C351.067 158.614 352.939 159.001 354.812 159.297C357.239 159.681 361.194 171.138 359.45 172.869C336.146 196.003 331.104 231.214 343.272 267.242C350.45 288.492 362.864 315.416 376.051 344.015L376.052 344.018L376.056 344.026C382.964 359.009 390.085 374.451 396.775 389.78C416.949 435.997 434.122 482.879 436.99 523.107C439.962 564.792 434.74 593.155 421.92 614.77C414.956 626.512 405.295 637.031 392.148 646.863C386.224 651.292 382.947 658.556 384.249 665.838C386.464 678.235 400.297 684.768 410.521 677.416C428.064 664.8 442.118 650.316 452.458 632.883C470.434 602.573 475.641 565.954 472.406 520.582C469.067 473.752 449.575 421.988 429.316 375.576C421.744 358.228 414.155 341.792 407.062 326.43C394.512 299.251 383.515 275.433 376.911 255.88C367.804 228.918 373.307 209.144 384.465 198.067C395.773 186.84 417.631 179.83 450.944 188.831L451.689 189.033C488.591 199.005 549.4 215.437 607.511 213.792C656.517 212.404 706.738 197.873 738.32 153.592C739.297 152.222 739.664 150.503 739.368 148.846L732.291 109.242C731.721 106.055 723.543 106.09 722.332 109.093C701.962 159.575 658.39 176.831 606.506 178.3C554.047 179.786 497.774 164.706 460.206 154.555C435.152 147.785 411.793 147.535 392.128 153.585C403.052 148.46 413.319 140.413 422.28 129.921C434.198 115.967 447.904 95.9549 462.464 74.6974L462.466 74.6954C470.095 63.5569 477.958 52.0761 485.921 40.9455C509.927 7.39098 535.659 -24.3349 562.715 -43.2207C590.751 -62.791 612.866 -71.0176 633.426 -71.0772C647.062 -71.1167 661.104 -67.5683 676.838 -59.8309C677.269 -59.6186 677.788 -59.6829 678.151 -59.9982C678.721 -60.4926 679.601 -60.3398 679.968 -59.6811C687.858 -45.5293 695.867 -29.8012 703.014 -13.4365C708.294 -1.3468 713.026 10.9159 716.878 22.999L698.981 -77.1469ZM74.237 -5.07456C80.5154 -13.8539 87.1451 -22.3208 94.0176 -30.0945L58.4658 0.777995C55.1997 3.61427 50.6628 0.511086 52.5872 -3.36302C53.3378 -4.87394 53.201 -6.8137 52.1135 -8.10357L46.0345 -15.3144C37.9171 -24.9431 22.6713 -23.6843 17.493 -12.2044C8.60836 7.49185 3.67882 27.0628 3.44111 47.3306C3.02781 82.5674 16.829 116.884 42.3166 154.56C68.623 193.446 111.385 228.529 152.136 258.594C167.368 269.831 182.158 280.271 195.982 290.028C220.44 307.291 241.872 322.419 257.368 336.051C278.736 354.848 283.858 374.723 279.733 389.896C275.553 405.272 260.129 422.272 226.778 431.133L226.032 431.331C189.088 441.146 128.21 457.32 78.707 487.8C36.9598 513.505 0.73344 551.2 -4.47739 605.339C-4.63856 607.015 -4.09681 608.687 -3.01204 609.974L22.9191 640.733C25.006 643.208 32.0708 639.089 31.6187 635.883C24.0179 581.979 53.1244 545.249 97.323 518.034C142.011 490.518 198.284 475.441 235.895 465.448C277.021 454.522 305.436 430.694 313.995 399.21C322.61 367.523 309.371 334.508 280.819 309.392C263.978 294.577 239.765 277.468 214.046 259.294L214.043 259.292L214.038 259.288C200.563 249.766 186.674 239.952 173.215 230.023C132.636 200.084 94.3225 168.069 71.7249 134.665C53.9731 108.424 44.1278 86.4593 40.5317 66.4196C39.0041 57.9076 41.0494 49.2405 45.1779 41.6416C53.0386 27.1732 62.921 10.7495 74.237 -5.07456ZM79.3884 707.715C88.7662 716.253 98.9954 724.507 109.613 732.337C126.589 744.857 144.163 756.006 160.161 765.251C171.838 771.999 173.679 788.435 163.367 797.128C160.591 799.469 156.443 799.116 154.102 796.339L79.3884 707.715Z" fill="white"/>
</g>
<defs>
<filter id="filter0_d_36_20206" x="0.148438" y="0" width="575" height="680" filterUnits="userSpaceOnUse" color-interpolation-filters="sRGB">
<feFlood flood-opacity="0" result="BackgroundImageFix"/>
<feColorMatrix in="SourceAlpha" type="matrix" values="0 0 0 0 0 0 0 0 0 0 0 0 0 0 0 0 0 0 127 0" result="hardAlpha"/>
<feOffset dy="25"/>
<feGaussianBlur stdDeviation="25"/>
<feColorMatrix type="matrix" values="0 0 0 0 0.795833 0 0 0 0 0.795833 0 0 0 0 0.795833 0 0 0 0.05 0"/>
<feBlend mode="normal" in2="BackgroundImageFix" result="effect1_dropShadow_36_20206"/>
<feBlend mode="normal" in="SourceGraphic" in2="effect1_dropShadow_36_20206" result="shape"/>
</filter>
</defs>
</svg>